<?xml version="1.0" encoding="UTF-8"?>
<svg width="89px" height="71px" viewBox="0 0 89 71" version="1.1" xmlns="http://www.w3.org/2000/svg" xmlns:xlink="http://www.w3.org/1999/xlink">
    <!-- Generator: Sketch 56.3 (81716) - https://sketch.com -->
    <title>logo-black</title>
    <desc>Created with Sketch.</desc>
    <g id="Page-1" stroke="none" stroke-width="1" fill="none" fill-rule="evenodd">
        <g id="logo-black" fill="#000000" fill-rule="nonzero">
            <path d="M69.3830769,1.17692308 C67.5830769,0.664615385 65.7276923,0.387692308 63.9,0 C57.2815385,0 50.6769231,0 44.0584615,0 C44.0584615,3.01846154 44.0584615,6.05076923 44.0584615,9.12461538 C44.3630769,9.15230769 44.5430769,9.18 44.7369231,9.18 C49.8046154,9.18 54.8861538,9.08307692 59.9538462,9.23538462 C62.3492308,9.30461538 64.8276923,9.49846154 67.0846154,10.2046154 C76.68,13.1953846 79.9615385,21.1569231 79.2692308,28.1769231 C78.3415385,37.4676923 70.9615385,43.92 61.6153846,43.9338462 C56.1184615,43.9476923 50.6215385,43.9892308 45.1384615,44.0169231 C44.8061538,44.0169231 44.4738462,44.0584615 44.1415385,44.0861538 C44.1415385,47.1046154 44.1415385,50.04 44.1415385,53.0861538 C44.6261538,53.0861538 45.0415385,53.0861538 45.4569231,53.0861538 C51.2584615,53.0723077 57.06,53.1 62.8615385,53.0169231 C64.62,52.9892308 66.4061538,52.8092308 68.1092308,52.4353846 C79.5738462,49.8738462 88.0338462,39.6692308 88.3938462,28.0661538 C88.7815385,15.2169231 81.2907692,4.59692308 69.3830769,1.17692308 Z" id="Path"></path>
            <path d="M26.4876923,52.9615385 C29.5476923,52.9615385 32.4692308,52.9615385 35.4738462,52.9615385 C35.4738462,52.4215385 35.4738462,51.9646154 35.4738462,51.5076923 C35.4738462,34.7538462 35.4738462,18.0138462 35.4738462,1.26 C35.4738462,0.844615385 35.5015385,0.415384615 35.5153846,0 C23.6769231,0 11.8384615,0 0,0 C0,3.06 0,6.10615385 0,9.24923077 C8.87538462,9.24923077 17.6261538,9.24923077 26.4876923,9.24923077 C26.4876923,23.8846154 26.4876923,38.4230769 26.4876923,52.9615385 Z" id="Path"></path>
            <path d="M5.19230769,62.9307692 L0.415384615,62.9307692 C0.304615385,62.9307692 0.207692308,62.9723077 0.124615385,63.0415385 C0.0415384615,63.1107692 0,63.2076923 0,63.3184615 C0,63.4292308 0.0415384615,63.5261538 0.124615385,63.5953846 C0.207692308,63.6646154 0.304615385,63.7061538 0.415384615,63.7061538 L2.36769231,63.7061538 L2.36769231,69.7015385 C2.36769231,69.8123077 2.40923077,69.9230769 2.49230769,70.0061538 C2.57538462,70.0892308 2.67230769,70.1307692 2.79692308,70.1307692 C2.92153846,70.1307692 3.03230769,70.0892308 3.11538462,70.0061538 C3.19846154,69.9230769 3.24,69.8261538 3.24,69.7015385 L3.24,63.7061538 L5.19230769,63.7061538 C5.30307692,63.7061538 5.41384615,63.6784615 5.49692308,63.5953846 C5.58,63.5261538 5.62153846,63.4292308 5.62153846,63.3046154 C5.62153846,63.1938462 5.58,63.0969231 5.49692308,63.0276923 C5.4,62.9723077 5.30307692,62.9307692 5.19230769,62.9307692 Z" id="Path"></path>
            <path d="M12.0876923,63.9969231 C11.8384615,63.6646154 11.52,63.4015385 11.1323077,63.2076923 C10.7584615,63.0138462 10.3153846,62.9307692 9.81692308,62.9307692 L7.25538462,62.9307692 C7.14461538,62.9307692 7.04769231,62.9723077 6.96461538,63.0553846 C6.88153846,63.1384615 6.84,63.2353846 6.84,63.3461538 L6.84,69.7015385 C6.84,69.8123077 6.88153846,69.9230769 6.96461538,70.0061538 C7.04769231,70.0892308 7.14461538,70.1307692 7.25538462,70.1307692 L9.83076923,70.1307692 C10.5092308,70.1307692 11.0769231,69.9646154 11.52,69.6461538 C11.9630769,69.3138462 12.2953846,68.8846154 12.5307692,68.3446154 C12.7523077,67.8046154 12.8630769,67.1953846 12.8630769,66.5446154 C12.8630769,66.06 12.7938462,65.6030769 12.6692308,65.1738462 C12.5307692,64.7169231 12.3507692,64.3430769 12.0876923,63.9969231 Z M11.7415385,67.9292308 C11.5892308,68.3584615 11.34,68.6907692 11.0076923,68.94 C10.6753846,69.1892308 10.2461538,69.3138462 9.72,69.3138462 L7.69846154,69.3138462 L7.69846154,63.72 L9.72,63.72 C10.1215385,63.72 10.4538462,63.7892308 10.7446154,63.9415385 C11.0353846,64.0938462 11.2569231,64.3015385 11.4369231,64.5507692 C11.6169231,64.8138462 11.7553846,65.1046154 11.8384615,65.4507692 C11.9215385,65.7969231 11.9630769,66.1430769 11.9630769,66.5169231 C11.9769231,67.0292308 11.8938462,67.5 11.7415385,67.9292308 Z" id="Shape"></path>
            <path d="M21.2815385,64.7584615 C21.1569231,64.7584615 21.06,64.8 20.9769231,64.8830769 C20.9076923,64.9661538 20.8661538,65.0630769 20.8661538,65.1738462 L20.8661538,65.6307692 C20.7692308,65.4923077 20.6723077,65.34 20.5338462,65.2153846 C20.34,65.0492308 20.1184615,64.9246154 19.8692308,64.8276923 C19.62,64.7307692 19.3430769,64.6892308 19.0523077,64.6892308 C18.5953846,64.6892308 18.1938462,64.8138462 17.82,65.0492308 C17.4461538,65.2846154 17.1553846,65.6169231 16.9476923,66.0323077 C16.7261538,66.4476923 16.6292308,66.9184615 16.6292308,67.4584615 C16.6292308,67.9984615 16.74,68.4692308 16.9476923,68.8846154 C17.1692308,69.3 17.46,69.6323077 17.82,69.8815385 C18.1938462,70.1307692 18.6092308,70.2415385 19.08,70.2415385 C19.3569231,70.2415385 19.62,70.1861538 19.8692308,70.0892308 C20.1184615,69.9923077 20.3261538,69.8676923 20.5061538,69.7153846 C20.6723077,69.5769231 20.7830769,69.4246154 20.88,69.2723077 L20.88,69.7292308 C20.88,69.84 20.9215385,69.9507692 20.9907692,70.0338462 C21.06,70.1169231 21.1707692,70.1584615 21.2953846,70.1584615 C21.4061538,70.1584615 21.5030769,70.1169231 21.5861538,70.0338462 C21.6692308,69.9507692 21.7107692,69.8538462 21.7107692,69.7292308 L21.7107692,65.2015385 C21.7107692,65.0907692 21.6692308,64.9938462 21.5861538,64.9107692 C21.4892308,64.8 21.3923077,64.7584615 21.2815385,64.7584615 Z M20.6861538,68.4692308 C20.5338462,68.7738462 20.34,69.0092308 20.0769231,69.1892308 C19.8138462,69.3692308 19.5092308,69.4523077 19.1630769,69.4523077 C18.8169231,69.4523077 18.5123077,69.3692308 18.2492308,69.1892308 C17.9861538,69.0092308 17.7784615,68.7738462 17.64,68.4692308 C17.4876923,68.1646154 17.4184615,67.8184615 17.4184615,67.4307692 C17.4184615,67.0430769 17.4876923,66.6969231 17.64,66.3923077 C17.7923077,66.0876923 18,65.8523077 18.2630769,65.6861538 C18.5261538,65.52 18.8307692,65.4230769 19.1630769,65.4230769 C19.5092308,65.4230769 19.8138462,65.5061538 20.0769231,65.6861538 C20.34,65.8661538 20.5476923,66.1015385 20.6861538,66.4061538 C20.8384615,66.7107692 20.9076923,67.0569231 20.9076923,67.4307692 C20.9076923,67.8323077 20.8384615,68.1646154 20.6861538,68.4692308 Z" id="Shape"></path>
            <path d="M29.0353846,64.7861538 C28.9107692,64.7169231 28.7723077,64.6753846 28.62,64.6753846 C28.3707692,64.6753846 28.1353846,64.7169231 27.9276923,64.8138462 C27.72,64.9107692 27.5261538,65.0353846 27.36,65.1876923 C27.1938462,65.3538462 27.0553846,65.5338462 26.9584615,65.7276923 C26.9169231,65.8107692 26.8892308,65.9076923 26.8615385,66.0046154 L26.8615385,65.2153846 C26.8615385,65.1046154 26.82,64.9938462 26.7507692,64.9246154 C26.6815385,64.8415385 26.5707692,64.8 26.4461538,64.8 C26.3353846,64.8 26.2384615,64.8415385 26.1553846,64.9246154 C26.0723077,65.0076923 26.0307692,65.1046154 26.0307692,65.2153846 L26.0307692,69.6876923 C26.0307692,69.7984615 26.0723077,69.9092308 26.1553846,69.9923077 C26.2384615,70.0753846 26.3353846,70.1169231 26.4461538,70.1169231 C26.5569231,70.1169231 26.6538462,70.0753846 26.7369231,69.9923077 C26.82,69.9092308 26.8615385,69.8123077 26.8615385,69.6876923 L26.8615385,67.1953846 C26.8615385,66.9461538 26.9030769,66.7107692 26.9861538,66.5030769 C27.0692308,66.2815385 27.18,66.0876923 27.3184615,65.9215385 C27.4569231,65.7553846 27.6092308,65.6169231 27.7753846,65.52 C27.9415385,65.4230769 28.1076923,65.3815385 28.2876923,65.3815385 C28.4123077,65.3815385 28.5092308,65.3953846 28.5923077,65.4369231 C28.6753846,65.4784615 28.7584615,65.4923077 28.8553846,65.4923077 C28.9523077,65.4923077 29.0353846,65.4646154 29.1184615,65.3953846 C29.2015385,65.3261538 29.2292308,65.2153846 29.2292308,65.0769231 C29.2292308,64.9661538 29.16,64.8553846 29.0353846,64.7861538 Z" id="Path"></path>
            <path d="M36.8584615,68.9538462 C36.7476923,68.9538462 36.6646154,68.9815385 36.5953846,69.0507692 C36.5261538,69.12 36.4292308,69.1892308 36.3184615,69.2584615 C36.2215385,69.3138462 36.0969231,69.3553846 35.9584615,69.3969231 C35.82,69.4384615 35.6261538,69.4523077 35.3769231,69.4523077 C35.0030769,69.4523077 34.6846154,69.3692308 34.4076923,69.1892308 C34.1307692,69.0092308 33.9092308,68.7738462 33.7430769,68.4692308 C33.5907692,68.1646154 33.5076923,67.8323077 33.5076923,67.4446154 C33.5076923,67.0569231 33.5907692,66.7246154 33.7569231,66.42 C33.9230769,66.1153846 34.1446154,65.88 34.4353846,65.7 C34.7261538,65.52 35.0446154,65.4369231 35.4323077,65.4369231 C35.5846154,65.4369231 35.7507692,65.4507692 35.9030769,65.4784615 C36.0553846,65.5061538 36.18,65.5476923 36.2630769,65.5892308 C36.3461538,65.6307692 36.4292308,65.6723077 36.4707692,65.7276923 C36.5261538,65.7830769 36.5815385,65.8246154 36.6369231,65.8661538 C36.6923077,65.8938462 36.7753846,65.9215385 36.8723077,65.9215385 C36.9692308,65.9215385 37.0523077,65.88 37.1215385,65.7969231 C37.1769231,65.7138462 37.2184615,65.6307692 37.2184615,65.5338462 C37.2184615,65.3676923 37.1353846,65.2292308 36.9692308,65.0907692 C36.8030769,64.9523077 36.5815385,64.8553846 36.3046154,64.7861538 C36.0276923,64.7169231 35.7092308,64.6753846 35.3630769,64.6753846 C34.8369231,64.6753846 34.38,64.8 33.9784615,65.0492308 C33.5769231,65.2984615 33.2723077,65.6307692 33.0507692,66.0461538 C32.8292308,66.4615385 32.7184615,66.9323077 32.7184615,67.4584615 C32.7184615,67.9846154 32.8292308,68.4553846 33.0369231,68.8707692 C33.2584615,69.2861538 33.5492308,69.6184615 33.9507692,69.8676923 C34.3384615,70.1169231 34.7953846,70.2276923 35.3215385,70.2276923 C35.6953846,70.2276923 36.0276923,70.1861538 36.3184615,70.0892308 C36.6092308,69.9923077 36.8446154,69.8815385 37.0107692,69.7430769 C37.1769231,69.6046154 37.2738462,69.48 37.2738462,69.3553846 C37.2738462,69.2446154 37.2461538,69.1476923 37.1769231,69.0784615 C37.0661538,68.9953846 36.9830769,68.9538462 36.8584615,68.9538462 Z" id="Path"></path>
            <path d="M44.7784615,65.0215385 C44.5153846,64.8276923 44.1553846,64.7307692 43.7123077,64.7307692 C43.4769231,64.7307692 43.2415385,64.7723077 43.02,64.8553846 C42.7984615,64.9384615 42.6046154,65.0630769 42.4246154,65.2015385 C42.2446154,65.34 42.0923077,65.5061538 41.9815385,65.6861538 C41.9676923,65.7 41.9676923,65.7138462 41.9676923,65.7415385 L41.9676923,62.9307692 C41.9676923,62.82 41.9261538,62.7230769 41.8569231,62.64 C41.7876923,62.5569231 41.6769231,62.5153846 41.5523077,62.5153846 C41.4415385,62.5153846 41.3446154,62.5569231 41.2615385,62.64 C41.1784615,62.7230769 41.1369231,62.82 41.1369231,62.9307692 L41.1369231,69.7015385 C41.1369231,69.8123077 41.1784615,69.9230769 41.2615385,70.0061538 C41.3446154,70.0892308 41.4415385,70.1307692 41.5523077,70.1307692 C41.6630769,70.1307692 41.76,70.0892308 41.8430769,70.0061538 C41.9261538,69.9230769 41.9676923,69.8261538 41.9676923,69.7015385 L41.9676923,66.8907692 C41.9676923,66.6276923 42.0369231,66.3923077 42.1753846,66.1846154 C42.3138462,65.9769231 42.4938462,65.8107692 42.7292308,65.6861538 C42.9646154,65.5615385 43.2138462,65.4923077 43.5046154,65.4923077 C43.8092308,65.4923077 44.0446154,65.5615385 44.2246154,65.6861538 C44.4046154,65.8107692 44.5292308,65.9769231 44.5984615,66.1846154 C44.6676923,66.3923077 44.7092308,66.6276923 44.7092308,66.8907692 L44.7092308,69.7015385 C44.7092308,69.8123077 44.7507692,69.9230769 44.8338462,70.0061538 C44.9169231,70.0892308 45.0138462,70.1307692 45.1246154,70.1307692 C45.2353846,70.1307692 45.3323077,70.0892308 45.4153846,70.0061538 C45.4984615,69.9230769 45.54,69.8261538 45.54,69.7015385 L45.54,66.8907692 C45.54,66.4892308 45.4846154,66.1292308 45.3738462,65.8107692 C45.2353846,65.4784615 45.0415385,65.2153846 44.7784615,65.0215385 Z" id="Path"></path>
            <path d="M50.2476923,63.0553846 C50.0815385,63.0553846 49.9569231,63.0830769 49.8738462,63.1523077 C49.7907692,63.2215385 49.7353846,63.3323077 49.7353846,63.4707692 L49.7353846,63.6092308 C49.7353846,63.7476923 49.7769231,63.8584615 49.86,63.9276923 C49.9430769,63.9969231 50.0676923,64.0246154 50.2338462,64.0246154 C50.4,64.0246154 50.5246154,63.9969231 50.6076923,63.9276923 C50.6907692,63.8584615 50.7323077,63.7476923 50.7323077,63.6092308 L50.7323077,63.4707692 C50.7323077,63.3323077 50.6907692,63.2215385 50.6076923,63.1523077 C50.5246154,63.0830769 50.4138462,63.0553846 50.2476923,63.0553846 Z" id="Path"></path>
            <path d="M50.2476923,64.7307692 C50.1369231,64.7307692 50.04,64.7723077 49.9569231,64.8553846 C49.8738462,64.9384615 49.8323077,65.0353846 49.8323077,65.1461538 L49.8323077,69.7015385 C49.8323077,69.8123077 49.8738462,69.9230769 49.9430769,70.0061538 C50.0123077,70.0892308 50.1230769,70.1307692 50.2476923,70.1307692 C50.3584615,70.1307692 50.4553846,70.0892308 50.5384615,70.0061538 C50.6215385,69.9230769 50.6630769,69.8261538 50.6630769,69.7015385 L50.6630769,65.1461538 C50.6630769,65.0353846 50.6215385,64.9246154 50.5384615,64.8553846 C50.4553846,64.7723077 50.3584615,64.7307692 50.2476923,64.7307692 Z" id="Path"></path>
            <path d="M57.1707692,64.8415385 L56.2292308,64.8415385 L56.2292308,63.8584615 C56.2292308,63.7476923 56.1876923,63.6369231 56.1184615,63.5676923 C56.0492308,63.4846154 55.9523077,63.4430769 55.8276923,63.4430769 C55.7030769,63.4430769 55.6061538,63.4846154 55.5369231,63.5676923 C55.4538462,63.6507692 55.4123077,63.7476923 55.4123077,63.8584615 L55.4123077,64.8415385 L54.7615385,64.8415385 C54.6646154,64.8415385 54.5676923,64.8830769 54.4984615,64.9523077 C54.4292308,65.0215385 54.3876923,65.1046154 54.3876923,65.2153846 C54.3876923,65.3261538 54.4292308,65.4230769 54.4984615,65.4923077 C54.5676923,65.5615385 54.6646154,65.6030769 54.7615385,65.6030769 L55.4123077,65.6030769 L55.4123077,68.8569231 C55.4123077,69.1753846 55.4538462,69.4107692 55.5507692,69.5907692 C55.6476923,69.7707692 55.7584615,69.8953846 55.8969231,69.9646154 C56.0353846,70.0476923 56.1738462,70.0892308 56.3123077,70.1030769 C56.4507692,70.1169231 56.5753846,70.1169231 56.6723077,70.1169231 C56.8523077,70.1169231 57.0184615,70.0753846 57.1569231,69.9923077 C57.2953846,69.9092308 57.3784615,69.7984615 57.3784615,69.6738462 C57.3784615,69.5769231 57.3507692,69.4938462 57.2953846,69.4246154 C57.24,69.3553846 57.1707692,69.3276923 57.1015385,69.3276923 C57.0323077,69.3276923 56.9769231,69.3415385 56.9215385,69.3692308 C56.8661538,69.3969231 56.8107692,69.4107692 56.7415385,69.4107692 C56.6723077,69.4107692 56.5892308,69.3969231 56.5061538,69.3692308 C56.4230769,69.3415385 56.3676923,69.2861538 56.3123077,69.2030769 C56.2569231,69.12 56.2430769,68.9953846 56.2430769,68.8292308 L56.2430769,65.6169231 L57.1846154,65.6169231 C57.2953846,65.6169231 57.3784615,65.5753846 57.4615385,65.5061538 C57.5307692,65.4369231 57.5723077,65.34 57.5723077,65.2292308 C57.5723077,65.1323077 57.5307692,65.0353846 57.4615385,64.9661538 C57.3646154,64.8830769 57.2815385,64.8415385 57.1707692,64.8415385 Z" id="Path"></path>
            <path d="M65.4092308,65.3676923 C65.1876923,65.1461538 64.9246154,64.98 64.6338462,64.8553846 C64.3430769,64.7446154 64.0384615,64.6753846 63.72,64.6753846 C63.2907692,64.6753846 62.8892308,64.7861538 62.5153846,65.0076923 C62.1415385,65.2292308 61.8230769,65.5476923 61.5876923,65.9769231 C61.3523077,66.4061538 61.2276923,66.9046154 61.2276923,67.5 C61.2276923,68.04 61.3384615,68.5107692 61.5738462,68.9123077 C61.8092308,69.3138462 62.1276923,69.6461538 62.5292308,69.8676923 C62.9446154,70.1030769 63.4153846,70.2138462 63.9692308,70.2138462 C64.3430769,70.2138462 64.6892308,70.1307692 65.0215385,69.9784615 C65.3538462,69.8123077 65.6169231,69.6323077 65.7969231,69.4246154 C65.9076923,69.3415385 65.9630769,69.2307692 65.9630769,69.12 C65.9630769,69.0230769 65.9353846,68.94 65.8661538,68.8707692 C65.7969231,68.8015385 65.7138462,68.76 65.6169231,68.76 C65.5338462,68.76 65.4507692,68.7876923 65.3676923,68.8569231 C65.2846154,68.9538462 65.1738462,69.0507692 65.0353846,69.1338462 C64.9107692,69.2307692 64.7446154,69.3 64.5784615,69.3692308 C64.3984615,69.4246154 64.1907692,69.4661538 63.9553846,69.4661538 C63.5676923,69.4661538 63.2353846,69.3830769 62.9446154,69.2030769 C62.6538462,69.0230769 62.4323077,68.7876923 62.2661538,68.4830769 C62.1276923,68.22 62.0584615,67.9153846 62.0446154,67.5830769 L65.7692308,67.5830769 C65.88,67.5830769 65.9769231,67.5415385 66.06,67.4723077 C66.1430769,67.4030769 66.1846154,67.3061538 66.1846154,67.1953846 C66.1846154,66.8076923 66.1015385,66.4615385 65.9630769,66.1569231 C65.8107692,65.8523077 65.6307692,65.5892308 65.4092308,65.3676923 Z M65.2984615,66.8907692 L62.1,66.8907692 C62.1276923,66.78 62.1138462,66.6276923 62.1553846,66.5307692 C62.2523077,66.2815385 62.3907692,66.0738462 62.5430769,65.9076923 C62.7092308,65.7415385 62.8892308,65.6307692 63.0830769,65.5615385 C63.2907692,65.4923077 63.4846154,65.4507692 63.6923077,65.4507692 C63.9415385,65.4507692 64.1907692,65.5061538 64.4123077,65.6169231 C64.6476923,65.7276923 64.8415385,65.88 64.9938462,66.0876923 C65.16,66.2953846 65.2430769,66.5307692 65.2707692,66.8076923 L65.2707692,66.8907692 L65.2984615,66.8907692 Z" id="Shape"></path>
            <path d="M74.1046154,68.9538462 C73.9938462,68.9538462 73.9107692,68.9815385 73.8415385,69.0507692 C73.7723077,69.12 73.6892308,69.1892308 73.5646154,69.2584615 C73.4676923,69.3138462 73.3430769,69.3553846 73.2046154,69.3969231 C73.0661538,69.4384615 72.8723077,69.4523077 72.6230769,69.4523077 C72.2492308,69.4523077 71.9307692,69.3692308 71.64,69.1892308 C71.3492308,69.0092308 71.1415385,68.7738462 70.9892308,68.4692308 C70.8369231,68.1646154 70.7538462,67.8323077 70.7538462,67.4446154 C70.7538462,67.0569231 70.8369231,66.7246154 71.0030769,66.42 C71.1692308,66.1153846 71.3907692,65.88 71.6815385,65.7 C71.9723077,65.52 72.2907692,65.4369231 72.6784615,65.4369231 C72.8307692,65.4369231 72.9969231,65.4507692 73.1492308,65.4784615 C73.3015385,65.5061538 73.4261538,65.5476923 73.5092308,65.5892308 C73.5923077,65.6307692 73.6615385,65.6723077 73.7169231,65.7276923 C73.7723077,65.7830769 73.8276923,65.8246154 73.8830769,65.8661538 C73.9384615,65.8938462 74.0215385,65.9215385 74.1184615,65.9215385 C74.2153846,65.9215385 74.2984615,65.88 74.3676923,65.7969231 C74.4369231,65.7138462 74.4646154,65.6307692 74.4646154,65.5338462 C74.4646154,65.3676923 74.3815385,65.2292308 74.2153846,65.0907692 C74.0492308,64.9523077 73.8276923,64.8553846 73.5507692,64.7861538 C73.2738462,64.7169231 72.9553846,64.6753846 72.6092308,64.6753846 C72.0830769,64.6753846 71.6261538,64.8 71.2246154,65.0492308 C70.8230769,65.2984615 70.5184615,65.6307692 70.2969231,66.0461538 C70.0753846,66.4615385 69.9646154,66.9323077 69.9646154,67.4584615 C69.9646154,67.9846154 70.0753846,68.4553846 70.2830769,68.8707692 C70.5046154,69.2861538 70.7953846,69.6184615 71.1969231,69.8676923 C71.5846154,70.1169231 72.0415385,70.2276923 72.5676923,70.2276923 C72.9415385,70.2276923 73.2738462,70.1861538 73.5646154,70.0892308 C73.8553846,69.9923077 74.0907692,69.8815385 74.2569231,69.7430769 C74.4230769,69.6046154 74.52,69.48 74.52,69.3553846 C74.52,69.2446154 74.4923077,69.1476923 74.4230769,69.0784615 C74.3123077,68.9953846 74.2292308,68.9538462 74.1046154,68.9538462 Z" id="Path"></path>
            <path d="M80.5846154,64.8415385 L79.6430769,64.8415385 L79.6430769,63.8584615 C79.6430769,63.7476923 79.6015385,63.6369231 79.5323077,63.5676923 C79.4630769,63.4846154 79.3661538,63.4430769 79.2415385,63.4430769 C79.1169231,63.4430769 79.02,63.4846154 78.9507692,63.5676923 C78.8676923,63.6507692 78.8261538,63.7476923 78.8261538,63.8584615 L78.8261538,64.8415385 L78.1753846,64.8415385 C78.0784615,64.8415385 77.9815385,64.8830769 77.9123077,64.9523077 C77.8430769,65.0215385 77.8015385,65.1046154 77.8015385,65.2153846 C77.8015385,65.3261538 77.8430769,65.4230769 77.9123077,65.4923077 C77.9815385,65.5615385 78.0784615,65.6030769 78.1753846,65.6030769 L78.8261538,65.6030769 L78.8261538,68.8569231 C78.8261538,69.1753846 78.8676923,69.4107692 78.9646154,69.5907692 C79.0615385,69.7707692 79.1723077,69.8953846 79.3107692,69.9646154 C79.4492308,70.0476923 79.5876923,70.0892308 79.7261538,70.1030769 C79.8646154,70.1169231 79.9892308,70.1169231 80.0861538,70.1169231 C80.2661538,70.1169231 80.4323077,70.0753846 80.5707692,69.9923077 C80.7092308,69.9092308 80.7923077,69.7984615 80.7923077,69.6738462 C80.7923077,69.5769231 80.7646154,69.4938462 80.7092308,69.4246154 C80.6538462,69.3553846 80.5846154,69.3276923 80.5153846,69.3276923 C80.4461538,69.3276923 80.3907692,69.3415385 80.3353846,69.3692308 C80.28,69.3969231 80.2246154,69.4107692 80.1553846,69.4107692 C80.0861538,69.4107692 80.0030769,69.3969231 79.92,69.3692308 C79.8369231,69.3415385 79.7815385,69.2861538 79.7261538,69.2030769 C79.6707692,69.12 79.6569231,68.9953846 79.6569231,68.8292308 L79.6569231,65.6169231 L80.5984615,65.6169231 C80.7092308,65.6169231 80.7923077,65.5753846 80.8753846,65.5061538 C80.9446154,65.4369231 80.9861538,65.34 80.9861538,65.2292308 C80.9861538,65.1323077 80.9446154,65.0353846 80.8753846,64.9661538 C80.7923077,64.8830769 80.6953846,64.8415385 80.5846154,64.8415385 Z" id="Path"></path>
            <path d="M88.4769231,68.0261538 C88.38,67.8461538 88.2553846,67.6938462 88.0892308,67.5830769 C87.9230769,67.4723077 87.7430769,67.3753846 87.5353846,67.3061538 C87.3276923,67.2369231 87.12,67.1676923 86.8984615,67.1123077 C86.6630769,67.0430769 86.4415385,66.9738462 86.2338462,66.9046154 C86.04,66.8353846 85.8738462,66.7384615 85.7630769,66.6276923 C85.6523077,66.5169231 85.5830769,66.3646154 85.5830769,66.1707692 C85.5830769,65.9769231 85.6384615,65.8107692 85.7353846,65.7 C85.8461538,65.5892308 85.9707692,65.5061538 86.1369231,65.4646154 C86.2892308,65.4230769 86.4553846,65.3953846 86.6215385,65.3953846 C86.8846154,65.3953846 87.12,65.4369231 87.3415385,65.5338462 C87.5630769,65.6307692 87.7430769,65.7553846 87.8815385,65.9353846 C87.9369231,65.9907692 88.02,66.0323077 88.1169231,66.0323077 C88.2138462,66.0323077 88.2969231,66.0184615 88.3661538,65.9630769 C88.4630769,65.88 88.5046154,65.7830769 88.5046154,65.6861538 C88.5046154,65.5892308 88.4630769,65.4923077 88.4076923,65.4369231 C88.2553846,65.2569231 88.0753846,65.1046154 87.8815385,64.9938462 C87.6876923,64.8830769 87.48,64.8138462 87.2723077,64.7723077 C87.0646154,64.7307692 86.8569231,64.7030769 86.6769231,64.7030769 C86.3446154,64.7030769 86.0261538,64.7584615 85.7492308,64.8830769 C85.4723077,65.0076923 85.2369231,65.1876923 85.0707692,65.4092308 C84.9046154,65.6307692 84.8215385,65.9076923 84.8215385,66.2123077 C84.8215385,66.4753846 84.8769231,66.6969231 84.9876923,66.8769231 C85.0984615,67.0569231 85.2369231,67.2092308 85.4030769,67.3338462 C85.5830769,67.4584615 85.7769231,67.5553846 85.9984615,67.6384615 C86.22,67.7215385 86.4415385,67.7907692 86.6630769,67.8461538 C86.8846154,67.9015385 87.0784615,67.9707692 87.2723077,68.04 C87.4523077,68.1092308 87.6046154,68.2061538 87.7292308,68.3169231 C87.84,68.4276923 87.9092308,68.58 87.9092308,68.7738462 C87.9092308,68.9676923 87.8538462,69.1338462 87.7430769,69.2584615 C87.6323077,69.3830769 87.4938462,69.4661538 87.3276923,69.5076923 C87.1615385,69.5492308 86.9953846,69.5769231 86.8292308,69.5907692 C86.4692308,69.5907692 86.1784615,69.5215385 85.9292308,69.3830769 C85.68,69.2446154 85.4584615,69.0646154 85.2646154,68.8430769 C85.1953846,68.76 85.1123077,68.7184615 85.0153846,68.7046154 C84.9184615,68.7046154 84.8353846,68.7184615 84.78,68.76 C84.6692308,68.8292308 84.6138462,68.9261538 84.6,69.0230769 C84.6,69.12 84.6138462,69.2169231 84.6830769,69.3 C84.9461538,69.6461538 85.2646154,69.8815385 85.6384615,70.0338462 C85.9984615,70.1723077 86.3723077,70.2553846 86.7461538,70.2553846 C87.0784615,70.2553846 87.3969231,70.2 87.6876923,70.0753846 C87.9784615,69.9507692 88.2138462,69.7846154 88.3938462,69.5492308 C88.5738462,69.3138462 88.6569231,69.0507692 88.6569231,68.7323077 C88.6153846,68.4276923 88.5738462,68.2061538 88.4769231,68.0261538 Z" id="Path"></path>
        </g>
    </g>
</svg>