<?xml version="1.0" encoding="utf-8"?>
<!-- Generator: Adobe Illustrator 25.4.1, SVG Export Plug-In . SVG Version: 6.00 Build 0)  -->
<svg version="1.2" baseProfile="tiny" id="Layer_1" xmlns="http://www.w3.org/2000/svg" xmlns:xlink="http://www.w3.org/1999/xlink"
	 x="0px" y="0px" viewBox="0 0 89 71" overflow="visible" xml:space="preserve">
<desc>Created with Sketch.</desc>
<g id="Page-1">
	<g id="logo-black">
		<path id="Path" fill="#FFFFFF" d="M69.38,1.18C67.58,0.66,65.73,0.39,63.9,0c-6.62,0-13.22,0-19.84,0c0,3.02,0,6.05,0,9.12
			c0.3,0.03,0.48,0.06,0.68,0.06c5.07,0,10.15-0.1,15.22,0.06c2.4,0.07,4.87,0.26,7.13,0.97c9.6,2.99,12.88,10.95,12.18,17.97
			c-0.93,9.29-8.31,15.74-17.65,15.76c-5.5,0.01-10.99,0.06-16.48,0.08c-0.33,0-0.66,0.04-1,0.07c0,3.02,0,5.95,0,9
			c0.48,0,0.9,0,1.32,0c5.8-0.01,11.6,0.01,17.4-0.07c1.76-0.03,3.54-0.21,5.25-0.58c11.46-2.56,19.92-12.77,20.28-24.37
			C88.78,15.22,81.29,4.6,69.38,1.18z"/>
		<path id="Path_00000056414999978252503900000004969602798665247389_" fill="#FFFFFF" d="M26.49,52.96c3.06,0,5.98,0,8.99,0
			c0-0.54,0-1,0-1.45c0-16.75,0-33.49,0-50.25c0-0.42,0.03-0.84,0.04-1.26C23.68,0,11.84,0,0,0c0,3.06,0,6.11,0,9.25
			c8.88,0,17.63,0,26.49,0C26.49,23.88,26.49,38.42,26.49,52.96z"/>
		<path id="Path_00000015321389717547192600000016649880480781830787_" fill="#FFFFFF" d="M5.19,62.93H0.42
			c-0.11,0-0.21,0.04-0.29,0.11S0,63.21,0,63.32c0,0.11,0.04,0.21,0.12,0.28c0.08,0.07,0.18,0.11,0.29,0.11h1.95v6
			c0,0.11,0.04,0.22,0.12,0.3s0.18,0.12,0.3,0.12c0.12,0,0.24-0.04,0.32-0.12s0.12-0.18,0.12-0.3v-6h1.95c0.11,0,0.22-0.03,0.3-0.11
			c0.08-0.07,0.12-0.17,0.12-0.29c0-0.11-0.04-0.21-0.12-0.28C5.4,62.97,5.3,62.93,5.19,62.93z"/>
		<path id="Shape" fill="#FFFFFF" d="M12.09,64c-0.25-0.33-0.57-0.6-0.96-0.79c-0.37-0.19-0.82-0.28-1.32-0.28H7.26
			c-0.11,0-0.21,0.04-0.29,0.12s-0.12,0.18-0.12,0.29v6.36c0,0.11,0.04,0.22,0.12,0.3s0.18,0.12,0.29,0.12h2.58
			c0.68,0,1.25-0.17,1.69-0.48c0.44-0.33,0.78-0.76,1.01-1.3c0.22-0.54,0.33-1.15,0.33-1.8c0-0.48-0.07-0.94-0.19-1.37
			C12.53,64.72,12.35,64.34,12.09,64z M11.74,67.93c-0.15,0.43-0.4,0.76-0.73,1.01s-0.76,0.37-1.29,0.37H7.7v-5.59h2.02
			c0.4,0,0.73,0.07,1.02,0.22c0.29,0.15,0.51,0.36,0.69,0.61c0.18,0.26,0.32,0.55,0.4,0.9c0.08,0.35,0.12,0.69,0.12,1.07
			C11.98,67.03,11.89,67.5,11.74,67.93z"/>
		<path id="Shape_00000007406752270340616400000012250423049067989641_" fill="#FFFFFF" d="M21.28,64.76c-0.12,0-0.22,0.04-0.3,0.12
			c-0.07,0.08-0.11,0.18-0.11,0.29v0.46c-0.1-0.14-0.19-0.29-0.33-0.42c-0.19-0.17-0.42-0.29-0.66-0.39
			c-0.25-0.1-0.53-0.14-0.82-0.14c-0.46,0-0.86,0.12-1.23,0.36c-0.37,0.24-0.66,0.57-0.87,0.98c-0.22,0.42-0.32,0.89-0.32,1.43
			c0,0.54,0.11,1.01,0.32,1.43c0.22,0.42,0.51,0.75,0.87,1c0.37,0.25,0.79,0.36,1.26,0.36c0.28,0,0.54-0.06,0.79-0.15
			c0.25-0.1,0.46-0.22,0.64-0.37c0.17-0.14,0.28-0.29,0.37-0.44v0.46c0,0.11,0.04,0.22,0.11,0.3c0.07,0.08,0.18,0.12,0.3,0.12
			c0.11,0,0.21-0.04,0.29-0.12c0.08-0.08,0.12-0.18,0.12-0.3V65.2c0-0.11-0.04-0.21-0.12-0.29C21.49,64.8,21.39,64.76,21.28,64.76z
			 M20.69,68.47c-0.15,0.3-0.35,0.54-0.61,0.72s-0.57,0.26-0.91,0.26c-0.35,0-0.65-0.08-0.91-0.26s-0.47-0.42-0.61-0.72
			c-0.15-0.3-0.22-0.65-0.22-1.04c0-0.39,0.07-0.73,0.22-1.04c0.15-0.3,0.36-0.54,0.62-0.71c0.26-0.17,0.57-0.26,0.9-0.26
			c0.35,0,0.65,0.08,0.91,0.26s0.47,0.42,0.61,0.72c0.15,0.3,0.22,0.65,0.22,1.02C20.91,67.83,20.84,68.16,20.69,68.47z"/>
		<path id="Path_00000014591778285781222810000015934106944466707600_" fill="#FFFFFF" d="M29.04,64.79
			c-0.12-0.07-0.26-0.11-0.42-0.11c-0.25,0-0.48,0.04-0.69,0.14c-0.21,0.1-0.4,0.22-0.57,0.37c-0.17,0.17-0.3,0.35-0.4,0.54
			c-0.04,0.08-0.07,0.18-0.1,0.28v-0.79c0-0.11-0.04-0.22-0.11-0.29c-0.07-0.08-0.18-0.12-0.3-0.12c-0.11,0-0.21,0.04-0.29,0.12
			c-0.08,0.08-0.12,0.18-0.12,0.29v4.47c0,0.11,0.04,0.22,0.12,0.3c0.08,0.08,0.18,0.12,0.29,0.12s0.21-0.04,0.29-0.12
			s0.12-0.18,0.12-0.3V67.2c0-0.25,0.04-0.48,0.12-0.69c0.08-0.22,0.19-0.42,0.33-0.58c0.14-0.17,0.29-0.3,0.46-0.4
			c0.17-0.1,0.33-0.14,0.51-0.14c0.12,0,0.22,0.01,0.3,0.06c0.08,0.04,0.17,0.06,0.26,0.06c0.1,0,0.18-0.03,0.26-0.1
			s0.11-0.18,0.11-0.32C29.23,64.97,29.16,64.86,29.04,64.79z"/>
		<path id="Path_00000093175844450703653820000005112786230784810899_" fill="#FFFFFF" d="M36.86,68.95c-0.11,0-0.19,0.03-0.26,0.1
			c-0.07,0.07-0.17,0.14-0.28,0.21c-0.1,0.06-0.22,0.1-0.36,0.14c-0.14,0.04-0.33,0.06-0.58,0.06c-0.37,0-0.69-0.08-0.97-0.26
			s-0.5-0.42-0.66-0.72c-0.15-0.3-0.24-0.64-0.24-1.02c0-0.39,0.08-0.72,0.25-1.02c0.17-0.3,0.39-0.54,0.68-0.72
			c0.29-0.18,0.61-0.26,1-0.26c0.15,0,0.32,0.01,0.47,0.04c0.15,0.03,0.28,0.07,0.36,0.11c0.08,0.04,0.17,0.08,0.21,0.14
			c0.06,0.06,0.11,0.1,0.17,0.14c0.06,0.03,0.14,0.06,0.24,0.06s0.18-0.04,0.25-0.12c0.06-0.08,0.1-0.17,0.1-0.26
			c0-0.17-0.08-0.3-0.25-0.44c-0.17-0.14-0.39-0.24-0.66-0.3s-0.6-0.11-0.94-0.11c-0.53,0-0.98,0.12-1.38,0.37s-0.71,0.58-0.93,1
			c-0.22,0.42-0.33,0.89-0.33,1.41c0,0.53,0.11,1,0.32,1.41c0.22,0.42,0.51,0.75,0.91,1c0.39,0.25,0.84,0.36,1.37,0.36
			c0.37,0,0.71-0.04,1-0.14c0.29-0.1,0.53-0.21,0.69-0.35c0.17-0.14,0.26-0.26,0.26-0.39c0-0.11-0.03-0.21-0.1-0.28
			C37.07,69,36.98,68.95,36.86,68.95z"/>
		<path id="Path_00000163764902038578803910000001562094146623486093_" fill="#FFFFFF" d="M44.78,65.02
			c-0.26-0.19-0.62-0.29-1.07-0.29c-0.24,0-0.47,0.04-0.69,0.12s-0.42,0.21-0.6,0.35s-0.33,0.3-0.44,0.48
			c-0.01,0.01-0.01,0.03-0.01,0.06v-2.81c0-0.11-0.04-0.21-0.11-0.29c-0.07-0.08-0.18-0.12-0.3-0.12c-0.11,0-0.21,0.04-0.29,0.12
			s-0.12,0.18-0.12,0.29v6.77c0,0.11,0.04,0.22,0.12,0.3s0.18,0.12,0.29,0.12c0.11,0,0.21-0.04,0.29-0.12
			c0.08-0.08,0.12-0.18,0.12-0.3v-2.81c0-0.26,0.07-0.5,0.21-0.71s0.32-0.37,0.55-0.5c0.24-0.12,0.48-0.19,0.78-0.19
			c0.3,0,0.54,0.07,0.72,0.19c0.18,0.12,0.3,0.29,0.37,0.5c0.07,0.21,0.11,0.44,0.11,0.71v2.81c0,0.11,0.04,0.22,0.12,0.3
			s0.18,0.12,0.29,0.12c0.11,0,0.21-0.04,0.29-0.12c0.08-0.08,0.12-0.18,0.12-0.3v-2.81c0-0.4-0.06-0.76-0.17-1.08
			C45.24,65.48,45.04,65.22,44.78,65.02z"/>
		<path id="Path_00000033336075346053579310000005161665362717633203_" fill="#FFFFFF" d="M50.25,63.06c-0.17,0-0.29,0.03-0.37,0.1
			c-0.08,0.07-0.14,0.18-0.14,0.32v0.14c0,0.14,0.04,0.25,0.12,0.32s0.21,0.1,0.37,0.1c0.17,0,0.29-0.03,0.37-0.1
			s0.12-0.18,0.12-0.32v-0.14c0-0.14-0.04-0.25-0.12-0.32C50.52,63.08,50.41,63.06,50.25,63.06z"/>
		<path id="Path_00000087412551239568132160000018186499120506457987_" fill="#FFFFFF" d="M50.25,64.73c-0.11,0-0.21,0.04-0.29,0.12
			s-0.12,0.18-0.12,0.29v4.56c0,0.11,0.04,0.22,0.11,0.3s0.18,0.12,0.3,0.12c0.11,0,0.21-0.04,0.29-0.12
			c0.08-0.08,0.12-0.18,0.12-0.3v-4.56c0-0.11-0.04-0.22-0.12-0.29C50.46,64.77,50.36,64.73,50.25,64.73z"/>
		<path id="Path_00000101784753077548264210000010290371216488452283_" fill="#FFFFFF" d="M57.17,64.84h-0.94v-0.98
			c0-0.11-0.04-0.22-0.11-0.29c-0.07-0.08-0.17-0.12-0.29-0.12c-0.12,0-0.22,0.04-0.29,0.12c-0.08,0.08-0.12,0.18-0.12,0.29v0.98
			h-0.65c-0.1,0-0.19,0.04-0.26,0.11c-0.07,0.07-0.11,0.15-0.11,0.26s0.04,0.21,0.11,0.28c0.07,0.07,0.17,0.11,0.26,0.11h0.65v3.25
			c0,0.32,0.04,0.55,0.14,0.73s0.21,0.3,0.35,0.37c0.14,0.08,0.28,0.12,0.42,0.14c0.14,0.01,0.26,0.01,0.36,0.01
			c0.18,0,0.35-0.04,0.48-0.12c0.14-0.08,0.22-0.19,0.22-0.32c0-0.1-0.03-0.18-0.08-0.25c-0.06-0.07-0.12-0.1-0.19-0.1
			c-0.07,0-0.12,0.01-0.18,0.04s-0.11,0.04-0.18,0.04c-0.07,0-0.15-0.01-0.24-0.04s-0.14-0.08-0.19-0.17
			c-0.06-0.08-0.07-0.21-0.07-0.37v-3.21h0.94c0.11,0,0.19-0.04,0.28-0.11c0.07-0.07,0.11-0.17,0.11-0.28c0-0.1-0.04-0.19-0.11-0.26
			C57.36,64.88,57.28,64.84,57.17,64.84z"/>
		<path id="Shape_00000065050636571378723850000017767276395026005424_" fill="#FFFFFF" d="M65.41,65.37
			c-0.22-0.22-0.48-0.39-0.78-0.51c-0.29-0.11-0.6-0.18-0.91-0.18c-0.43,0-0.83,0.11-1.2,0.33c-0.37,0.22-0.69,0.54-0.93,0.97
			s-0.36,0.93-0.36,1.52c0,0.54,0.11,1.01,0.35,1.41c0.24,0.4,0.55,0.73,0.96,0.96c0.42,0.24,0.89,0.35,1.44,0.35
			c0.37,0,0.72-0.08,1.05-0.24c0.33-0.17,0.6-0.35,0.78-0.55c0.11-0.08,0.17-0.19,0.17-0.3c0-0.1-0.03-0.18-0.1-0.25
			c-0.07-0.07-0.15-0.11-0.25-0.11c-0.08,0-0.17,0.03-0.25,0.1c-0.08,0.1-0.19,0.19-0.33,0.28c-0.12,0.1-0.29,0.17-0.46,0.24
			c-0.18,0.06-0.39,0.1-0.62,0.1c-0.39,0-0.72-0.08-1.01-0.26c-0.29-0.18-0.51-0.42-0.68-0.72c-0.14-0.26-0.21-0.57-0.22-0.9h3.72
			c0.11,0,0.21-0.04,0.29-0.11c0.08-0.07,0.12-0.17,0.12-0.28c0-0.39-0.08-0.73-0.22-1.04C65.81,65.85,65.63,65.59,65.41,65.37z
			 M65.3,66.89h-3.2c0.03-0.11,0.01-0.26,0.06-0.36c0.1-0.25,0.24-0.46,0.39-0.62c0.17-0.17,0.35-0.28,0.54-0.35
			c0.21-0.07,0.4-0.11,0.61-0.11c0.25,0,0.5,0.06,0.72,0.17c0.24,0.11,0.43,0.26,0.58,0.47c0.17,0.21,0.25,0.44,0.28,0.72v0.08H65.3
			z"/>
		<path id="Path_00000000198088120742485950000003691089963964048786_" fill="#FFFFFF" d="M74.1,68.95c-0.11,0-0.19,0.03-0.26,0.1
			c-0.07,0.07-0.15,0.14-0.28,0.21c-0.1,0.06-0.22,0.1-0.36,0.14c-0.14,0.04-0.33,0.06-0.58,0.06c-0.37,0-0.69-0.08-0.98-0.26
			s-0.5-0.42-0.65-0.72c-0.15-0.3-0.24-0.64-0.24-1.02c0-0.39,0.08-0.72,0.25-1.02c0.17-0.3,0.39-0.54,0.68-0.72
			c0.29-0.18,0.61-0.26,1-0.26c0.15,0,0.32,0.01,0.47,0.04s0.28,0.07,0.36,0.11c0.08,0.04,0.15,0.08,0.21,0.14
			c0.06,0.06,0.11,0.1,0.17,0.14c0.06,0.03,0.14,0.06,0.24,0.06s0.18-0.04,0.25-0.12s0.1-0.17,0.1-0.26c0-0.17-0.08-0.3-0.25-0.44
			c-0.17-0.14-0.39-0.24-0.66-0.3c-0.28-0.07-0.6-0.11-0.94-0.11c-0.53,0-0.98,0.12-1.38,0.37c-0.4,0.25-0.71,0.58-0.93,1
			c-0.22,0.42-0.33,0.89-0.33,1.41c0,0.53,0.11,1,0.32,1.41c0.22,0.42,0.51,0.75,0.91,1c0.39,0.25,0.84,0.36,1.37,0.36
			c0.37,0,0.71-0.04,1-0.14c0.29-0.1,0.53-0.21,0.69-0.35c0.17-0.14,0.26-0.26,0.26-0.39c0-0.11-0.03-0.21-0.1-0.28
			C74.31,69,74.23,68.95,74.1,68.95z"/>
		<path id="Path_00000117669960711834247470000005011337978436214711_" fill="#FFFFFF" d="M80.58,64.84h-0.94v-0.98
			c0-0.11-0.04-0.22-0.11-0.29c-0.07-0.08-0.17-0.12-0.29-0.12s-0.22,0.04-0.29,0.12c-0.08,0.08-0.12,0.18-0.12,0.29v0.98h-0.65
			c-0.1,0-0.19,0.04-0.26,0.11s-0.11,0.15-0.11,0.26s0.04,0.21,0.11,0.28s0.17,0.11,0.26,0.11h0.65v3.25c0,0.32,0.04,0.55,0.14,0.73
			s0.21,0.3,0.35,0.37c0.14,0.08,0.28,0.12,0.42,0.14c0.14,0.01,0.26,0.01,0.36,0.01c0.18,0,0.35-0.04,0.48-0.12
			c0.14-0.08,0.22-0.19,0.22-0.32c0-0.1-0.03-0.18-0.08-0.25c-0.06-0.07-0.12-0.1-0.19-0.1c-0.07,0-0.12,0.01-0.18,0.04
			c-0.06,0.03-0.11,0.04-0.18,0.04c-0.07,0-0.15-0.01-0.24-0.04s-0.14-0.08-0.19-0.17c-0.06-0.08-0.07-0.21-0.07-0.37v-3.21h0.94
			c0.11,0,0.19-0.04,0.28-0.11c0.07-0.07,0.11-0.17,0.11-0.28c0-0.1-0.04-0.19-0.11-0.26C80.79,64.88,80.7,64.84,80.58,64.84z"/>
		<path id="Path_00000101805438062497595860000003152242985477088169_" fill="#FFFFFF" d="M88.48,68.03
			c-0.1-0.18-0.22-0.33-0.39-0.44s-0.35-0.21-0.55-0.28s-0.42-0.14-0.64-0.19c-0.24-0.07-0.46-0.14-0.66-0.21
			c-0.19-0.07-0.36-0.17-0.47-0.28s-0.18-0.26-0.18-0.46s0.06-0.36,0.15-0.47c0.11-0.11,0.24-0.19,0.4-0.24
			c0.15-0.04,0.32-0.07,0.48-0.07c0.26,0,0.5,0.04,0.72,0.14c0.22,0.1,0.4,0.22,0.54,0.4c0.06,0.06,0.14,0.1,0.24,0.1
			s0.18-0.01,0.25-0.07c0.1-0.08,0.14-0.18,0.14-0.28c0-0.1-0.04-0.19-0.1-0.25c-0.15-0.18-0.33-0.33-0.53-0.44
			c-0.19-0.11-0.4-0.18-0.61-0.22c-0.21-0.04-0.42-0.07-0.6-0.07c-0.33,0-0.65,0.06-0.93,0.18c-0.28,0.12-0.51,0.3-0.68,0.53
			c-0.17,0.22-0.25,0.5-0.25,0.8c0,0.26,0.06,0.48,0.17,0.66s0.25,0.33,0.42,0.46c0.18,0.12,0.37,0.22,0.6,0.3
			c0.22,0.08,0.44,0.15,0.66,0.21c0.22,0.06,0.42,0.12,0.61,0.19c0.18,0.07,0.33,0.17,0.46,0.28c0.11,0.11,0.18,0.26,0.18,0.46
			c0,0.19-0.06,0.36-0.17,0.48c-0.11,0.12-0.25,0.21-0.42,0.25c-0.17,0.04-0.33,0.07-0.5,0.08c-0.36,0-0.65-0.07-0.9-0.21
			c-0.25-0.14-0.47-0.32-0.66-0.54c-0.07-0.08-0.15-0.12-0.25-0.14c-0.1,0-0.18,0.01-0.24,0.06c-0.11,0.07-0.17,0.17-0.18,0.26
			c0,0.1,0.01,0.19,0.08,0.28c0.26,0.35,0.58,0.58,0.96,0.73c0.36,0.14,0.73,0.22,1.11,0.22c0.33,0,0.65-0.06,0.94-0.18
			c0.29-0.12,0.53-0.29,0.71-0.53c0.18-0.24,0.26-0.5,0.26-0.82C88.62,68.43,88.57,68.21,88.48,68.03z"/>
	</g>
</g>
</svg>
